<svg width="80" height="81" viewBox="0 0 80 81" fill="none" xmlns="http://www.w3.org/2000/svg">
<rect x="0.5" y="1" width="79" height="79" rx="11.5" fill="#262529"/>
<path d="M33.333 23.8333V28.8333" stroke="#CFC8FF" stroke-width="2" stroke-miterlimit="10" stroke-linecap="round" stroke-linejoin="round"/>
<path d="M46.667 23.8333V28.8333" stroke="#CFC8FF" stroke-width="2" stroke-miterlimit="10" stroke-linecap="round" stroke-linejoin="round"/>
<path d="M25.833 35.6499H54.1663" stroke="#CFC8FF" stroke-width="2" stroke-miterlimit="10" stroke-linecap="round" stroke-linejoin="round"/>
<path d="M55 34.6666V48.8333C55 53.8333 52.5 57.1666 46.6667 57.1666H33.3333C27.5 57.1666 25 53.8333 25 48.8333V34.6666C25 29.6666 27.5 26.3333 33.3333 26.3333H46.6667C52.5 26.3333 55 29.6666 55 34.6666Z" stroke="#CFC8FF" stroke-width="2" stroke-miterlimit="10" stroke-linecap="round" stroke-linejoin="round"/>
<path d="M46.1582 43.3333H46.1731" stroke="#CFC8FF" stroke-width="2.4" stroke-linecap="round" stroke-linejoin="round"/>
<path d="M46.1582 48.3333H46.1731" stroke="#CFC8FF" stroke-width="2.4" stroke-linecap="round" stroke-linejoin="round"/>
<path d="M39.9921 43.3333H40.0071" stroke="#CFC8FF" stroke-width="2.4" stroke-linecap="round" stroke-linejoin="round"/>
<path d="M39.9921 48.3333H40.0071" stroke="#CFC8FF" stroke-width="2.4" stroke-linecap="round" stroke-linejoin="round"/>
<path d="M33.8242 43.3333H33.8391" stroke="#CFC8FF" stroke-width="2.4" stroke-linecap="round" stroke-linejoin="round"/>
<path d="M33.8242 48.3333H33.8391" stroke="#CFC8FF" stroke-width="2.4" stroke-linecap="round" stroke-linejoin="round"/>
<rect x="0.5" y="1" width="79" height="79" rx="11.5" stroke="#28272B"/>
</svg>
