<svg width="20" height="20" viewBox="0 0 20 20" fill="none" xmlns="http://www.w3.org/2000/svg">
<path d="M10 17C10.946 17 11.81 16.897 12.598 16.719L10.841 14.962C10.568 14.983 10.291 15 10 15C4.649 15 2.576 11.154 2.074 10C2.45095 9.15881 2.96005 8.38334 3.582 7.703L2.184 6.305C0.646002 7.972 0.0630018 9.651 0.0520018 9.684C-0.0169779 9.88936 -0.0169779 10.1116 0.0520018 10.317C0.0730018 10.383 2.367 17 10 17ZM10 3C8.163 3 6.654 3.396 5.396 3.981L1.707 0.292999L0.293002 1.707L18.293 19.707L19.707 18.293L16.388 14.974C19.002 13.023 19.935 10.359 19.949 10.317C20.018 10.1116 20.018 9.88936 19.949 9.684C19.927 9.617 17.633 3 10 3ZM14.972 13.558L12.692 11.278C12.882 10.888 13 10.459 13 10C13 8.359 11.641 7 10 7C9.541 7 9.112 7.118 8.723 7.309L6.915 5.501C7.90752 5.16041 8.95071 4.991 10 5C15.351 5 17.424 8.846 17.926 10C17.624 10.692 16.76 12.342 14.972 13.558Z" fill="#4B4B60"/>
</svg>
